<svg width="24" height="24" viewBox="0 0 24 24" fill="none" xmlns="http://www.w3.org/2000/svg">
<g clip-path="url(#clip0_4534_16)">
<path d="M3.22023 11.4691C3.5127 11.1766 3.98827 11.1767 4.28078 11.4691L7.28078 14.4691C7.57328 14.7616 7.57328 15.2372 7.28078 15.5297C7.13392 15.6749 6.94226 15.7483 6.7505 15.7484C6.55858 15.7484 6.36623 15.6765 6.21925 15.5297L4.5005 13.8109V16.5004C4.5007 18.5687 6.18212 20.2504 8.2505 20.2504C8.66429 20.2506 8.99855 20.5865 8.99855 21.0004C8.99835 21.4142 8.66242 21.7504 8.24855 21.7504C5.35367 21.7504 2.99875 19.3952 2.99855 16.5004V13.8109L1.2798 15.5297C0.987362 15.8221 0.511768 15.822 0.219253 15.5297C-0.0732471 15.2372 -0.0732471 14.7616 0.219253 14.4691L3.22023 11.4691Z" fill="#242424"/>
<path fill-rule="evenodd" clip-rule="evenodd" d="M13.9985 1.64293C14.6704 1.46901 15.3724 1.45487 16.0503 1.60485C16.7266 1.62437 17.3925 1.78188 18.0073 2.06676C18.6207 2.35171 19.1716 2.75819 19.6245 3.26207C20.289 4.21457 20.6102 5.36429 20.5337 6.52379C20.5592 7.26169 20.4452 7.99826 20.2007 8.69567L20.4194 9.79528L20.5054 9.83434C21.1052 10.1343 21.609 10.5965 21.9614 11.1664L21.9605 11.1634C22.3127 11.7348 22.4985 12.3916 22.4986 13.0619V14.7211C22.491 14.9805 22.4205 15.2344 22.2915 15.4593C22.1956 15.6317 22.0816 15.7938 21.9527 15.9437C21.7082 16.2167 21.4427 16.472 21.1577 16.7045C20.8878 16.9294 20.6203 17.1255 20.4253 17.2679C20.1149 17.4959 19.791 17.7059 19.4566 17.8978C18.9076 18.2128 18.3389 18.4946 17.7554 18.7406C15.9374 19.5281 13.98 19.9471 11.9985 19.9681C11.3806 19.9621 10.7667 19.9032 10.1577 19.8207C9.76168 19.1774 9.05688 18.7455 8.24855 18.7455C7.23456 18.7455 6.37625 18.0717 6.09425 17.1507C6.30424 17.2137 6.52506 17.2455 6.74855 17.2455C7.00639 17.2455 7.2568 17.1946 7.49367 17.1107C8.93217 17.6687 10.4555 17.9789 12.0005 17.9984C13.7178 17.9758 15.414 17.6129 16.9888 16.9291C17.4987 16.7131 17.9956 16.4672 18.4771 16.1927L18.563 16.1429L18.5552 16.1312V10.5394L18.5249 10.3871C17.8035 10.6631 17.0342 10.7929 16.2632 10.7689C15.6137 10.8064 14.9626 10.7102 14.3521 10.4867C13.7401 10.2632 13.182 9.9176 12.7095 9.4691C12.4276 9.18118 12.1894 8.85573 12.0005 8.50035C11.8115 8.86035 11.5707 9.1908 11.2857 9.4818C10.8134 9.92852 10.2542 10.275 9.64406 10.4984C9.03367 10.7219 8.38231 10.8181 7.73292 10.7806C6.96042 10.8061 6.19173 10.6773 5.47023 10.3998L5.44777 10.5131L5.34132 10.4066C4.91546 9.98241 4.35019 9.74851 3.7505 9.7484C3.6965 9.7484 3.64337 9.75855 3.58937 9.76305L3.80421 8.68981C3.55976 7.99394 3.44577 7.25579 3.47121 6.51793C3.39471 5.35993 3.71589 4.20871 4.38039 3.25621C4.83478 2.75392 5.38669 2.34779 6.00148 2.06285C6.61648 1.77935 7.28442 1.62337 7.96242 1.60387C8.63884 1.45543 9.34082 1.46895 10.0112 1.64293C10.6815 1.81842 11.301 2.14797 11.8198 2.6068C11.8843 2.6758 11.9464 2.74814 12.0034 2.82164C12.0604 2.74967 12.1216 2.67578 12.186 2.6068C12.705 2.14784 13.3266 1.81692 13.9985 1.64293ZM15.8413 3.5609C14.4707 3.40948 13.9083 3.66606 13.6353 3.9525C13.3623 4.239 13.16 4.84367 13.313 6.07067C13.3535 6.8191 13.6367 7.53483 14.1196 8.10778C14.409 8.3686 14.7494 8.56487 15.1196 8.68785C15.4886 8.80935 15.8806 8.85471 16.2691 8.81871C17.4796 8.81871 17.9477 8.55571 18.1607 8.31871H18.1694C18.5113 7.78483 18.6537 7.1492 18.5728 6.52086H18.5747C18.6452 5.8055 18.4757 5.08825 18.0903 4.48082C17.7965 4.18396 17.4469 3.94985 17.0601 3.79235C16.6731 3.63485 16.2583 3.5549 15.8413 3.5609ZM10.3833 3.95055C10.1298 3.67909 9.54558 3.40845 8.17628 3.55993C7.75789 3.55547 7.34542 3.63488 6.95851 3.79235C6.57158 3.94985 6.22024 4.18342 5.92628 4.47887H5.93605C5.55207 5.08484 5.38023 5.80345 5.4507 6.51891C5.3697 7.14741 5.513 7.78524 5.855 8.31774C6.06661 8.55612 6.53604 8.81669 7.74562 8.81676C8.13256 8.85276 8.52458 8.80984 8.89503 8.68688C9.26403 8.56388 9.60651 8.36532 9.89601 8.10582C10.3804 7.53288 10.6631 6.81708 10.7036 6.06871C10.8521 4.84036 10.6368 4.22203 10.3833 3.95055Z" fill="#242424"/>
<path d="M9.70656 12.097C9.83556 12.097 9.96351 12.1227 10.0835 12.1722C10.2034 12.2217 10.3114 12.2937 10.4028 12.3851C10.4943 12.4766 10.5662 12.5854 10.6157 12.7054C10.6651 12.8253 10.6909 12.9526 10.6909 13.0814V15.0511C10.6909 15.18 10.6651 15.3073 10.6157 15.4271C10.5662 15.5471 10.4943 15.6559 10.4028 15.7474C10.3114 15.8388 10.2034 15.9108 10.0835 15.9603C9.96351 16.0098 9.83556 16.0345 9.70656 16.0345C9.57757 16.0345 9.4496 16.0098 9.3296 15.9603C9.20975 15.9108 9.10168 15.8388 9.01027 15.7474C8.96677 15.7054 8.94418 15.6465 8.90968 15.597C8.96215 15.4036 9.00046 15.2057 9.0005 15.0004C9.0005 14.6224 8.89768 14.2619 8.72218 13.9379V13.0814C8.72219 12.9526 8.74801 12.8253 8.79738 12.7054C8.84688 12.5854 8.91877 12.4766 9.01027 12.3851C9.10168 12.2937 9.20974 12.2217 9.3296 12.1722C9.4496 12.1227 9.57757 12.097 9.70656 12.097Z" fill="#242424"/>
<path d="M14.2984 12.097C14.5591 12.0971 14.8093 12.2009 14.9937 12.3851C15.1781 12.5696 15.2817 12.8204 15.2818 13.0814V15.0511C15.2817 15.3121 15.1781 15.563 14.9937 15.7474C14.8093 15.9316 14.5591 16.0345 14.2984 16.0345C14.0375 16.0345 13.7865 15.9318 13.6021 15.7474C13.4176 15.563 13.314 15.3121 13.314 15.0511V13.0814C13.314 12.8204 13.4176 12.5696 13.6021 12.3851C13.7865 12.2007 14.0374 12.097 14.2984 12.097Z" fill="#242424"/>
</g>
<defs>
<clipPath id="clip0_4534_16">
<rect width="24" height="24" fill="white"/>
</clipPath>
</defs>
</svg>
