<svg width="631" height="479" viewBox="80 80 547 319" fill="none" xmlns="http://www.w3.org/2000/svg">
  <g>
    <g>
      <g>
        <rect x="465" y="340" width="77" height="59" rx="2" stroke="var(--vscode-dropdown-border, #3C3C3C)" stroke-width="2" stroke-linecap="round" stroke-dasharray="5 5" />
      </g>
      <g>
        <rect x="80" y="80" width="379" height="267" rx="2" stroke="var(--vscode-dropdown-border, #3C3C3C)" stroke-width="2" stroke-linecap="round" stroke-dasharray="5 5" />
      </g>
      <g filter="url(#filter0_d_4505_108304)">
        <g clip-path="url(#clip0_4505_108304)">
          <rect x="100" y="102" width="431" height="287" rx="2" fill="var(--vscode-editor-background, #1E1E1E)" />
          <g>
            <rect width="431" height="20" transform="translate(100 102)" fill="var(--vscode-titleBar-activeBackground, #303031)" />
            <g>
              <g>
                <g>
                  <rect width="72" height="15" transform="translate(105 107)" fill="var(--vscode-tab-activeBackground, #3C3C3C)" />
                  <rect x="113.406" y="112" width="55.3408" height="4.90362" rx="2.45181" fill="var(--vscode-badge-background, #303031)" />
                </g>
              </g>
            </g>
            <g>
              <path d="M493.982 112.009V112.628H487.124V112.009H493.982Z" fill="var(--vscode-keybindingLabel-background, #808080)" />
              <path d="M502.097 108.885V115.123H508.336V108.885H502.097ZM507.707 114.505H502.716V109.514H507.707V114.505Z" fill="var(--vscode-keybindingLabel-background, #808080)" />
              <path d="M519.636 112.009L516.791 114.854L517.34 115.403L520.185 112.558L523.03 115.403L523.579 114.854L520.734 112.009L523.579 109.164L523.03 108.615L520.185 111.46L517.34 108.615L516.791 109.164L519.636 112.009Z" fill="var(--vscode-keybindingLabel-background, #808080)" />
            </g>
          </g>
          <g>
            <g>
              <g>
                <g>
                  <g>
                    <rect x="127" y="296" width="303" height="8" rx="4" fill="var(--vscode-tab-inactiveForeground, #FFFFFF)" fill-opacity="0.16" />
                    <rect x="127" y="311" width="212.281" height="8" rx="4" fill="var(--vscode-tab-inactiveForeground, #FFFFFF)" fill-opacity="0.16" />
                    <rect x="346.281" y="311" width="58.0599" height="8" rx="4" fill="var(--vscode-activityBarBadge-background, #007ACC)" />
                  </g>
                  <g>
                    <rect x="127" y="351" width="99.7904" height="8" rx="4" fill="var(--vscode-tab-inactiveForeground, #FFFFFF)" fill-opacity="0.16" />
                    <rect x="127" y="366" width="50" height="8" rx="4" fill="var(--vscode-tab-inactiveForeground, #FFFFFF)" fill-opacity="0.16" />
                    <rect x="249" y="366" width="181" height="8" rx="4" fill="var(--vscode-tab-inactiveForeground, #FFFFFF)" fill-opacity="0.16" />
                    <rect x="184" y="366" width="58.0599" height="8" rx="4" fill="var(--vscode-activityBarBadge-background, #007ACC)" />
                  </g>
                  <g>
                    <rect x="127" y="211" width="160" height="8" rx="4" fill="var(--vscode-tab-inactiveForeground, #FFFFFF)" fill-opacity="0.16" />
                    <rect x="359" y="211" width="71" height="8" rx="4" fill="var(--vscode-tab-inactiveForeground, #FFFFFF)" fill-opacity="0.16" />
                    <rect x="294" y="211" width="58.0599" height="8" rx="4" fill="var(--vscode-activityBarBadge-background, #007ACC)" />
                    <rect x="127" y="241" width="281.228" height="8" rx="4" fill="var(--vscode-tab-inactiveForeground, #FFFFFF)" fill-opacity="0.16" />
                    <rect x="127" y="256" width="100" height="8" rx="4" fill="var(--vscode-gitlens-mergedPullRequestIconColor, #6C6CC4)" />
                    <rect x="127" y="226" width="303" height="8" rx="4" fill="var(--vscode-tab-inactiveForeground, #FFFFFF)" fill-opacity="0.16" />
                  </g>
                </g>
              </g>
              <g>
                <g filter="url(#filter1_d_4505_108304)">
                  <g>
                    <mask style="mask-type:alpha" maskUnits="userSpaceOnUse" x="128" y="139" width="14" height="14">
                      <path fill-rule="evenodd" clip-rule="evenodd" d="M137.928 152.904C138.148 152.99 138.4 152.985 138.622 152.878L141.505 151.491C141.807 151.345 142 151.039 142 150.702V141.298C142 140.962 141.807 140.655 141.505 140.509L138.622 139.122C138.33 138.982 137.988 139.016 137.732 139.203C137.695 139.229 137.66 139.259 137.628 139.292L132.11 144.326L129.706 142.501C129.482 142.332 129.17 142.345 128.962 142.534L128.191 143.236C127.937 143.467 127.936 143.867 128.19 144.098L130.275 146L128.19 147.902C127.936 148.133 127.937 148.533 128.191 148.764L128.962 149.466C129.17 149.655 129.482 149.669 129.706 149.499L132.11 147.674L137.628 152.708C137.715 152.796 137.817 152.861 137.928 152.904ZM138.502 142.822L134.315 146L138.502 149.178V142.822Z" fill="#FFFFFF" />
                    </mask>
                    <g mask="url(#mask0_4505_108304)">
                      <path d="M141.505 140.511L138.62 139.122C138.286 138.962 137.887 139.03 137.625 139.292L128.182 147.902C127.928 148.133 127.928 148.533 128.182 148.764L128.954 149.465C129.162 149.655 129.475 149.668 129.699 149.499L141.07 140.872C141.452 140.582 142 140.854 142 141.333V141.3C142 140.964 141.807 140.657 141.505 140.511Z" fill="#0065A9" />
                      <g filter="url(#filter2_d_4505_108304)">
                        <path d="M141.505 151.489L138.62 152.878C138.286 153.038 137.887 152.97 137.625 152.708L128.182 144.098C127.928 143.867 127.928 143.467 128.182 143.236L128.954 142.535C129.162 142.345 129.475 142.332 129.699 142.501L141.07 151.128C141.452 151.418 142 151.146 142 150.667V150.7C142 151.036 141.807 151.343 141.505 151.489Z" fill="#007ACC" />
                      </g>
                      <g filter="url(#filter3_d_4505_108304)">
                        <path d="M138.62 152.878C138.286 153.038 137.887 152.97 137.625 152.708C137.948 153.031 138.5 152.803 138.5 152.346V139.654C138.5 139.198 137.948 138.969 137.625 139.292C137.887 139.03 138.286 138.962 138.62 139.122L141.504 140.509C141.807 140.655 142 140.962 142 141.298V150.702C142 151.039 141.807 151.345 141.504 151.491L138.62 152.878Z" fill="#1F9CF0" />
                      </g>
                      <g style="mix-blend-mode:overlay" opacity="0.25">
                        <path fill-rule="evenodd" clip-rule="evenodd" d="M137.919 152.904C138.14 152.99 138.391 152.985 138.614 152.878L141.496 151.491C141.799 151.345 141.991 151.039 141.991 150.702V141.298C141.991 140.962 141.799 140.655 141.496 140.509L138.614 139.122C138.322 138.982 137.98 139.016 137.723 139.203C137.687 139.229 137.652 139.259 137.619 139.292L132.101 144.326L129.698 142.501C129.474 142.332 129.161 142.345 128.953 142.534L128.182 143.236C127.928 143.467 127.928 143.867 128.182 144.098L130.266 146L128.182 147.902C127.928 148.133 127.928 148.533 128.182 148.764L128.953 149.466C129.161 149.655 129.474 149.669 129.698 149.499L132.101 147.674L137.619 152.708C137.706 152.796 137.809 152.861 137.919 152.904ZM138.494 142.822L134.307 146L138.494 149.178V142.822Z" fill="url(#paint0_linear_4505_108304)" />
                      </g>
                    </g>
                  </g>
                </g>
              </g>
              <text x="127" y="180" fill="var(--vscode-tab-activeForeground, #FFFFFF)" font-family="system-ui, -apple-system, BlinkMacSystemFont, 'Segoe UI', Roboto, sans-serif" font-size="18" font-weight="400">App Modernization</text>
            </g>
          </g>
        </g>
      </g>
      <g>
        <rect x="500.758" y="313.927" width="72.0325" height="49.8687" fill="var(--vscode-breadcrumb-background, #1E1E1E)" />
        <path d="M498.067 311.79L500.467 309.123H565.533L567.933 311.79V356.59L565.533 359.256H500.467L498.067 356.59V311.79ZM503.133 316.856V354.19H563.133V316.856L534.6 338.723H531.4L503.133 316.856ZM558.067 314.19H507.933L533 333.656L558.067 314.19Z" fill="var(--vscode-breadcrumb-foreground, #CCCCCC)" />
      </g>
      <path d="M603.533 238.867L605.933 241.533V286.6L603.533 289H569.667L555.267 303.4L551 301.533V289H538.467L536.067 286.6V241.533L538.467 238.867H603.533ZM601.133 283.933V243.933H541.133V283.933H553.4L556.067 286.6V295.4L566.733 284.733L568.6 283.933H601.133Z" fill="var(--vscode-breadcrumb-foreground, #CCCCCC)" />
    </g>
  </g>
  <defs>
    <filter id="filter0_d_4505_108304" x="84" y="88" width="463" height="319" filterUnits="userSpaceOnUse" color-interpolation-filters="sRGB">
      <feFlood flood-opacity="0" result="BackgroundImageFix" />
      <feColorMatrix in="SourceAlpha" type="matrix" values="0 0 0 0 0 0 0 0 0 0 0 0 0 0 0 0 0 0 127 0" result="hardAlpha" />
      <feOffset dy="2" />
      <feGaussianBlur stdDeviation="8" />
      <feColorMatrix type="matrix" values="0 0 0 0 0 0 0 0 0 0 0 0 0 0 0 0 0 0 0.36 0" />
      <feBlend mode="normal" in2="BackgroundImageFix" result="effect1_dropShadow_4505_108304" />
      <feBlend mode="normal" in="SourceGraphic" in2="effect1_dropShadow_4505_108304" result="shape" />
    </filter>
    <filter id="filter1_d_4505_108304" x="126.128" y="137.752" width="17.7432" height="17.7432" filterUnits="userSpaceOnUse" color-interpolation-filters="sRGB">
      <feFlood flood-opacity="0" result="BackgroundImageFix" />
      <feColorMatrix in="SourceAlpha" type="matrix" values="0 0 0 0 0 0 0 0 0 0 0 0 0 0 0 0 0 0 127 0" result="hardAlpha" />
      <feOffset dy="0.623874" />
      <feGaussianBlur stdDeviation="0.935811" />
      <feColorMatrix type="matrix" values="0 0 0 0 0 0 0 0 0 0 0 0 0 0 0 0 0 0 0.25 0" />
      <feBlend mode="normal" in2="BackgroundImageFix" result="effect1_dropShadow_4505_108304" />
      <feBlend mode="normal" in="SourceGraphic" in2="effect1_dropShadow_4505_108304" result="shape" />
    </filter>
    <filter id="filter2_d_4505_108304" x="123.624" y="138.016" width="22.7428" height="19.3153" filterUnits="userSpaceOnUse" color-interpolation-filters="sRGB">
      <feFlood flood-opacity="0" result="BackgroundImageFix" />
      <feColorMatrix in="SourceAlpha" type="matrix" values="0 0 0 0 0 0 0 0 0 0 0 0 0 0 0 0 0 0 127 0" result="hardAlpha" />
      <feOffset />
      <feGaussianBlur stdDeviation="2.18356" />
      <feColorMatrix type="matrix" values="0 0 0 0 0 0 0 0 0 0 0 0 0 0 0 0 0 0 0.25 0" />
      <feBlend mode="overlay" in2="BackgroundImageFix" result="effect1_dropShadow_4505_108304" />
      <feBlend mode="normal" in="SourceGraphic" in2="effect1_dropShadow_4505_108304" result="shape" />
    </filter>
    <filter id="filter3_d_4505_108304" x="133.258" y="134.669" width="13.1092" height="22.662" filterUnits="userSpaceOnUse" color-interpolation-filters="sRGB">
      <feFlood flood-opacity="0" result="BackgroundImageFix" />
      <feColorMatrix in="SourceAlpha" type="matrix" values="0 0 0 0 0 0 0 0 0 0 0 0 0 0 0 0 0 0 127 0" result="hardAlpha" />
      <feOffset />
      <feGaussianBlur stdDeviation="2.18356" />
      <feColorMatrix type="matrix" values="0 0 0 0 0 0 0 0 0 0 0 0 0 0 0 0 0 0 0.25 0" />
      <feBlend mode="overlay" in2="BackgroundImageFix" result="effect1_dropShadow_4505_108304" />
      <feBlend mode="normal" in="SourceGraphic" in2="effect1_dropShadow_4505_108304" result="shape" />
    </filter>
    <linearGradient id="paint0_linear_4505_108304" x1="134.991" y1="139.036" x2="134.991" y2="152.964" gradientUnits="userSpaceOnUse">
      <stop stop-color="white" />
      <stop offset="1" stop-color="white" stop-opacity="0" />
    </linearGradient>
    <clipPath id="clip0_4505_108304">
      <rect x="100" y="102" width="431" height="287" rx="2" fill="var(--vscode-activityBar-activeBorder, #FFFFFF)" />
    </clipPath>
  </defs>
</svg>